<mxfile host="app.diagrams.net" modified="2022-08-25T04:47:19.841Z" agent="5.0 (Windows NT 10.0; Win64; x64) AppleWebKit/537.36 (KHTML, like Gecko) Chrome/104.0.0.0 Safari/537.36" etag="6r90bSgjAOnfQXNR1TKE" version="20.2.6" type="github" pages="7">
  <diagram id="cLHrY0ErMVjW-JP0Qsnz" name="github actions">
    <mxGraphModel dx="1185" dy="628" grid="1" gridSize="10" guides="1" tooltips="1" connect="1" arrows="1" fold="1" page="1" pageScale="1" pageWidth="850" pageHeight="1100" math="0" shadow="0">
      <root>
        <mxCell id="0" />
        <mxCell id="1" value="default" parent="0" visible="0" />
        <mxCell id="Rgpufr8bOXuqnWRCojN8-1" value="Some default&#xa;message&#xa;text." style="strokeWidth=1;shadow=0;dashed=0;align=center;html=1;shape=mxgraph.mockup.containers.rrect;rSize=0;strokeColor=#666666;fontColor=#666666;fontSize=17;verticalAlign=top;whiteSpace=wrap;fillColor=#ffffff;spacingTop=32;labelBackgroundColor=none;labelBorderColor=default;dropTarget=0;" vertex="1" parent="1">
          <mxGeometry x="70" y="100" width="250" height="160" as="geometry" />
        </mxCell>
        <mxCell id="Rgpufr8bOXuqnWRCojN8-2" value="Message Title" style="strokeWidth=1;shadow=0;dashed=0;align=center;html=1;shape=mxgraph.mockup.containers.rrect;rSize=0;fontSize=17;fontColor=#666666;strokeColor=#666666;align=left;spacingLeft=8;fillColor=#ffffff;resizeWidth=1;labelBackgroundColor=none;labelBorderColor=default;dropTarget=0;" vertex="1" parent="Rgpufr8bOXuqnWRCojN8-1">
          <mxGeometry width="250" height="30" relative="1" as="geometry" />
        </mxCell>
        <mxCell id="Rgpufr8bOXuqnWRCojN8-3" value="" style="shape=ellipse;strokeColor=#008cff;resizable=0;fillColor=none;html=1;labelBackgroundColor=none;labelBorderColor=default;" vertex="1" parent="Rgpufr8bOXuqnWRCojN8-2">
          <mxGeometry x="1" y="0.5" width="20" height="20" relative="1" as="geometry">
            <mxPoint x="-25" y="-10" as="offset" />
          </mxGeometry>
        </mxCell>
        <mxCell id="Rgpufr8bOXuqnWRCojN8-4" value="OK" style="strokeWidth=1;shadow=0;dashed=0;align=center;html=1;shape=mxgraph.mockup.containers.rrect;rSize=0;fontSize=16;fontColor=#666666;strokeColor=#c4c4c4;resizable=0;whiteSpace=wrap;fillColor=#ffffff;labelBackgroundColor=none;labelBorderColor=default;" vertex="1" parent="Rgpufr8bOXuqnWRCojN8-1">
          <mxGeometry x="0.5" y="1" width="120" height="25" relative="1" as="geometry">
            <mxPoint x="-60" y="-33" as="offset" />
          </mxGeometry>
        </mxCell>
        <mxCell id="Rgpufr8bOXuqnWRCojN8-9" value="active" parent="0" />
        <mxCell id="Rgpufr8bOXuqnWRCojN8-23" value="simple-workflow.yml" style="swimlane;startSize=20;horizontal=1;containerType=tree;labelBackgroundColor=none;labelBorderColor=default;strokeColor=default;strokeWidth=2;fillColor=none;align=center;" vertex="1" parent="Rgpufr8bOXuqnWRCojN8-9">
          <mxGeometry x="40" y="10" width="791.00171875" height="1040" as="geometry" />
        </mxCell>
        <mxCell id="Rgpufr8bOXuqnWRCojN8-25" value="name" style="whiteSpace=wrap;html=1;treeFolding=1;treeMoving=1;newEdgeStyle={&quot;edgeStyle&quot;:&quot;elbowEdgeStyle&quot;,&quot;startArrow&quot;:&quot;none&quot;,&quot;endArrow&quot;:&quot;none&quot;};labelBackgroundColor=none;labelBorderColor=default;strokeColor=default;strokeWidth=2;fillColor=none;verticalAlign=top;align=center;container=1;" vertex="1" parent="Rgpufr8bOXuqnWRCojN8-23">
          <mxGeometry x="115" y="30" width="145" height="80" as="geometry" />
        </mxCell>
        <mxCell id="Rgpufr8bOXuqnWRCojN8-57" value="CI" style="whiteSpace=wrap;html=1;treeFolding=0;treeMoving=1;newEdgeStyle={&quot;edgeStyle&quot;:&quot;elbowEdgeStyle&quot;,&quot;startArrow&quot;:&quot;none&quot;,&quot;endArrow&quot;:&quot;none&quot;};labelBackgroundColor=none;labelBorderColor=none;strokeColor=default;strokeWidth=2;fillColor=none;dashed=1;" vertex="1" parent="Rgpufr8bOXuqnWRCojN8-25">
          <mxGeometry x="12.5" y="30" width="120" height="40" as="geometry" />
        </mxCell>
        <mxCell id="Rgpufr8bOXuqnWRCojN8-51" style="rounded=0;orthogonalLoop=1;jettySize=auto;html=1;entryX=0.5;entryY=0;entryDx=0;entryDy=0;edgeStyle=elbowEdgeStyle;exitX=0.5;exitY=1;exitDx=0;exitDy=0;endArrow=none;endFill=0;elbow=vertical;" edge="1" parent="Rgpufr8bOXuqnWRCojN8-23" source="Rgpufr8bOXuqnWRCojN8-29" target="Rgpufr8bOXuqnWRCojN8-50">
          <mxGeometry relative="1" as="geometry" />
        </mxCell>
        <mxCell id="Rgpufr8bOXuqnWRCojN8-29" value="on" style="whiteSpace=wrap;html=1;treeFolding=1;treeMoving=1;newEdgeStyle={&quot;edgeStyle&quot;:&quot;elbowEdgeStyle&quot;,&quot;startArrow&quot;:&quot;none&quot;,&quot;endArrow&quot;:&quot;none&quot;};labelBackgroundColor=none;labelBorderColor=default;strokeColor=default;strokeWidth=2;fillColor=none;verticalAlign=top;align=center;container=1;" vertex="1" parent="Rgpufr8bOXuqnWRCojN8-23">
          <mxGeometry x="115" y="140" width="145" height="80" as="geometry" />
        </mxCell>
        <mxCell id="Rgpufr8bOXuqnWRCojN8-30" value="" style="edgeStyle=elbowEdgeStyle;rounded=0;orthogonalLoop=1;jettySize=auto;html=1;elbow=vertical;startArrow=none;endArrow=none;exitX=0.5;exitY=1;exitDx=0;exitDy=0;entryX=0.5;entryY=0;entryDx=0;entryDy=0;" edge="1" source="Rgpufr8bOXuqnWRCojN8-29" target="Rgpufr8bOXuqnWRCojN8-31" parent="Rgpufr8bOXuqnWRCojN8-23">
          <mxGeometry relative="1" as="geometry" />
        </mxCell>
        <mxCell id="Rgpufr8bOXuqnWRCojN8-31" value="push" style="whiteSpace=wrap;html=1;treeFolding=1;treeMoving=1;newEdgeStyle={&quot;edgeStyle&quot;:&quot;elbowEdgeStyle&quot;,&quot;startArrow&quot;:&quot;none&quot;,&quot;endArrow&quot;:&quot;none&quot;};labelBackgroundColor=none;labelBorderColor=default;strokeColor=default;strokeWidth=2;fillColor=none;verticalAlign=top;align=center;container=1;" vertex="1" collapsed="1" parent="Rgpufr8bOXuqnWRCojN8-23">
          <mxGeometry x="15" y="260" width="145" height="80" as="geometry" />
        </mxCell>
        <mxCell id="Rgpufr8bOXuqnWRCojN8-48" value="" style="edgeStyle=elbowEdgeStyle;rounded=0;orthogonalLoop=1;jettySize=auto;html=1;elbow=vertical;startArrow=none;endArrow=none;" edge="1" visible="0" target="Rgpufr8bOXuqnWRCojN8-49" source="Rgpufr8bOXuqnWRCojN8-31" parent="Rgpufr8bOXuqnWRCojN8-23">
          <mxGeometry relative="1" as="geometry">
            <mxPoint x="312.5" y="395" as="sourcePoint" />
          </mxGeometry>
        </mxCell>
        <mxCell id="Rgpufr8bOXuqnWRCojN8-49" value="branches" style="whiteSpace=wrap;html=1;treeFolding=1;treeMoving=1;newEdgeStyle={&quot;edgeStyle&quot;:&quot;elbowEdgeStyle&quot;,&quot;startArrow&quot;:&quot;none&quot;,&quot;endArrow&quot;:&quot;none&quot;};labelBackgroundColor=none;labelBorderColor=default;strokeColor=default;strokeWidth=2;fillColor=none;verticalAlign=top;align=center;container=1;" vertex="1" visible="0" collapsed="1" parent="Rgpufr8bOXuqnWRCojN8-23">
          <mxGeometry x="15" y="370" width="145" height="80" as="geometry" />
        </mxCell>
        <mxCell id="Rgpufr8bOXuqnWRCojN8-27" value="[ master ]" style="whiteSpace=wrap;html=1;treeFolding=0;treeMoving=1;newEdgeStyle={&quot;edgeStyle&quot;:&quot;elbowEdgeStyle&quot;,&quot;startArrow&quot;:&quot;none&quot;,&quot;endArrow&quot;:&quot;none&quot;};labelBackgroundColor=none;labelBorderColor=none;strokeColor=default;strokeWidth=2;fillColor=none;dashed=1;" vertex="1" parent="Rgpufr8bOXuqnWRCojN8-49">
          <mxGeometry x="12.5" y="35" width="120" height="40" as="geometry" />
        </mxCell>
        <mxCell id="Rgpufr8bOXuqnWRCojN8-54" style="rounded=0;orthogonalLoop=1;jettySize=auto;html=1;entryX=0.5;entryY=0;entryDx=0;entryDy=0;exitX=0.5;exitY=1;exitDx=0;exitDy=0;edgeStyle=elbowEdgeStyle;elbow=vertical;endArrow=none;endFill=0;" edge="1" parent="Rgpufr8bOXuqnWRCojN8-23" source="Rgpufr8bOXuqnWRCojN8-50" target="Rgpufr8bOXuqnWRCojN8-52" visible="0">
          <mxGeometry relative="1" as="geometry" />
        </mxCell>
        <mxCell id="Rgpufr8bOXuqnWRCojN8-50" value="pull_request" style="whiteSpace=wrap;html=1;treeFolding=1;treeMoving=1;newEdgeStyle={&quot;edgeStyle&quot;:&quot;elbowEdgeStyle&quot;,&quot;startArrow&quot;:&quot;none&quot;,&quot;endArrow&quot;:&quot;none&quot;};labelBackgroundColor=none;labelBorderColor=default;strokeColor=default;strokeWidth=2;fillColor=none;verticalAlign=top;align=center;container=1;" vertex="1" collapsed="1" parent="Rgpufr8bOXuqnWRCojN8-23">
          <mxGeometry x="245" y="260" width="145" height="80" as="geometry" />
        </mxCell>
        <mxCell id="Rgpufr8bOXuqnWRCojN8-52" value="branches" style="whiteSpace=wrap;html=1;treeFolding=1;treeMoving=1;newEdgeStyle={&quot;edgeStyle&quot;:&quot;elbowEdgeStyle&quot;,&quot;startArrow&quot;:&quot;none&quot;,&quot;endArrow&quot;:&quot;none&quot;};labelBackgroundColor=none;labelBorderColor=default;strokeColor=default;strokeWidth=2;fillColor=none;verticalAlign=top;align=center;container=1;" vertex="1" visible="0" collapsed="1" parent="Rgpufr8bOXuqnWRCojN8-23">
          <mxGeometry x="245" y="370" width="145" height="80" as="geometry" />
        </mxCell>
        <mxCell id="Rgpufr8bOXuqnWRCojN8-53" value="[ master ]" style="whiteSpace=wrap;html=1;treeFolding=0;treeMoving=1;newEdgeStyle={&quot;edgeStyle&quot;:&quot;elbowEdgeStyle&quot;,&quot;startArrow&quot;:&quot;none&quot;,&quot;endArrow&quot;:&quot;none&quot;};labelBackgroundColor=none;labelBorderColor=none;strokeColor=default;strokeWidth=2;fillColor=none;dashed=1;" vertex="1" parent="Rgpufr8bOXuqnWRCojN8-52">
          <mxGeometry x="12.5" y="35" width="120" height="40" as="geometry" />
        </mxCell>
        <mxCell id="Rgpufr8bOXuqnWRCojN8-58" value="jobs" style="whiteSpace=wrap;html=1;treeFolding=1;treeMoving=1;newEdgeStyle={&quot;edgeStyle&quot;:&quot;elbowEdgeStyle&quot;,&quot;startArrow&quot;:&quot;none&quot;,&quot;endArrow&quot;:&quot;none&quot;};labelBackgroundColor=none;labelBorderColor=default;strokeColor=default;strokeWidth=2;fillColor=none;verticalAlign=top;align=center;container=1;" vertex="1" parent="Rgpufr8bOXuqnWRCojN8-23">
          <mxGeometry x="115" y="470" width="145" height="80" as="geometry" />
        </mxCell>
        <mxCell id="Rgpufr8bOXuqnWRCojN8-63" style="edgeStyle=elbowEdgeStyle;rounded=0;orthogonalLoop=1;jettySize=auto;elbow=vertical;html=1;entryX=0.5;entryY=0;entryDx=0;entryDy=0;endArrow=none;endFill=0;" edge="1" parent="Rgpufr8bOXuqnWRCojN8-23" source="Rgpufr8bOXuqnWRCojN8-59" target="Rgpufr8bOXuqnWRCojN8-61">
          <mxGeometry relative="1" as="geometry" />
        </mxCell>
        <mxCell id="Rgpufr8bOXuqnWRCojN8-64" style="edgeStyle=elbowEdgeStyle;rounded=0;orthogonalLoop=1;jettySize=auto;elbow=vertical;html=1;entryX=0.5;entryY=0;entryDx=0;entryDy=0;endArrow=none;endFill=0;" edge="1" parent="Rgpufr8bOXuqnWRCojN8-23" source="Rgpufr8bOXuqnWRCojN8-59" target="Rgpufr8bOXuqnWRCojN8-62">
          <mxGeometry relative="1" as="geometry" />
        </mxCell>
        <mxCell id="Rgpufr8bOXuqnWRCojN8-59" value="build" style="whiteSpace=wrap;html=1;treeFolding=1;treeMoving=1;newEdgeStyle={&quot;edgeStyle&quot;:&quot;elbowEdgeStyle&quot;,&quot;startArrow&quot;:&quot;none&quot;,&quot;endArrow&quot;:&quot;none&quot;};labelBackgroundColor=none;labelBorderColor=default;strokeColor=default;strokeWidth=2;fillColor=none;verticalAlign=top;align=center;container=1;" vertex="1" parent="Rgpufr8bOXuqnWRCojN8-23">
          <mxGeometry x="115" y="580" width="145" height="80" as="geometry" />
        </mxCell>
        <mxCell id="Rgpufr8bOXuqnWRCojN8-60" value="" style="edgeStyle=elbowEdgeStyle;rounded=0;orthogonalLoop=1;jettySize=auto;html=1;elbow=vertical;startArrow=none;endArrow=none;exitX=0.5;exitY=1;exitDx=0;exitDy=0;entryX=0.5;entryY=0;entryDx=0;entryDy=0;" edge="1" parent="Rgpufr8bOXuqnWRCojN8-23" source="Rgpufr8bOXuqnWRCojN8-58" target="Rgpufr8bOXuqnWRCojN8-59">
          <mxGeometry relative="1" as="geometry">
            <mxPoint x="187.5" y="220" as="sourcePoint" />
            <mxPoint x="87.5" y="260" as="targetPoint" />
          </mxGeometry>
        </mxCell>
        <mxCell id="Rgpufr8bOXuqnWRCojN8-61" value="runs-on" style="whiteSpace=wrap;html=1;treeFolding=1;treeMoving=1;newEdgeStyle={&quot;edgeStyle&quot;:&quot;elbowEdgeStyle&quot;,&quot;startArrow&quot;:&quot;none&quot;,&quot;endArrow&quot;:&quot;none&quot;};labelBackgroundColor=none;labelBorderColor=default;strokeColor=default;strokeWidth=2;fillColor=none;verticalAlign=top;align=center;container=1;" vertex="1" parent="Rgpufr8bOXuqnWRCojN8-23">
          <mxGeometry x="30" y="680" width="145" height="80" as="geometry" />
        </mxCell>
        <mxCell id="Rgpufr8bOXuqnWRCojN8-65" value="ubuntu-latest&lt;span style=&quot;color: rgba(0, 0, 0, 0); font-family: monospace; font-size: 0px; text-align: start;&quot;&gt;%3CmxGraphModel%3E%3Croot%3E%3CmxCell%20id%3D%220%22%2F%3E%3CmxCell%20id%3D%221%22%20parent%3D%220%22%2F%3E%3CmxCell%20id%3D%222%22%20value%3D%22%5B%20master%20%5D%22%20style%3D%22whiteSpace%3Dwrap%3Bhtml%3D1%3BtreeFolding%3D0%3BtreeMoving%3D1%3BnewEdgeStyle%3D%7B%26quot%3BedgeStyle%26quot%3B%3A%26quot%3BelbowEdgeStyle%26quot%3B%2C%26quot%3BstartArrow%26quot%3B%3A%26quot%3Bnone%26quot%3B%2C%26quot%3BendArrow%26quot%3B%3A%26quot%3Bnone%26quot%3B%7D%3BlabelBackgroundColor%3Dnone%3BlabelBorderColor%3Dnone%3BstrokeColor%3Ddefault%3BstrokeWidth%3D2%3BfillColor%3Dnone%3Bdashed%3D1%3B%22%20vertex%3D%221%22%20parent%3D%221%22%3E%3CmxGeometry%20x%3D%22357.5%22%20y%3D%22455%22%20width%3D%22120%22%20height%3D%2240%22%20as%3D%22geometry%22%2F%3E%3C%2FmxCell%3E%3C%2Froot%3E%3C%2FmxGraphModel%3E&lt;/span&gt;" style="whiteSpace=wrap;html=1;treeFolding=0;treeMoving=1;newEdgeStyle={&quot;edgeStyle&quot;:&quot;elbowEdgeStyle&quot;,&quot;startArrow&quot;:&quot;none&quot;,&quot;endArrow&quot;:&quot;none&quot;};labelBackgroundColor=none;labelBorderColor=none;strokeColor=default;strokeWidth=2;fillColor=none;dashed=1;" vertex="1" parent="Rgpufr8bOXuqnWRCojN8-61">
          <mxGeometry x="12.5" y="30" width="120" height="40" as="geometry" />
        </mxCell>
        <mxCell id="Rgpufr8bOXuqnWRCojN8-74" style="edgeStyle=elbowEdgeStyle;rounded=0;orthogonalLoop=1;jettySize=auto;elbow=vertical;html=1;endArrow=classic;endFill=1;exitX=0.5;exitY=1;exitDx=0;exitDy=0;entryX=0;entryY=0.5;entryDx=0;entryDy=0;" edge="1" parent="Rgpufr8bOXuqnWRCojN8-23" source="Rgpufr8bOXuqnWRCojN8-62" target="Rgpufr8bOXuqnWRCojN8-67">
          <mxGeometry relative="1" as="geometry">
            <mxPoint x="350" y="800" as="targetPoint" />
            <Array as="points">
              <mxPoint x="320" y="800" />
              <mxPoint x="330" y="820" />
            </Array>
          </mxGeometry>
        </mxCell>
        <mxCell id="Rgpufr8bOXuqnWRCojN8-75" style="edgeStyle=elbowEdgeStyle;rounded=0;orthogonalLoop=1;jettySize=auto;elbow=vertical;html=1;entryX=0;entryY=0.5;entryDx=0;entryDy=0;endArrow=classic;endFill=1;" edge="1" parent="Rgpufr8bOXuqnWRCojN8-23" source="Rgpufr8bOXuqnWRCojN8-62" target="Rgpufr8bOXuqnWRCojN8-68">
          <mxGeometry relative="1" as="geometry">
            <Array as="points">
              <mxPoint x="290" y="890" />
            </Array>
          </mxGeometry>
        </mxCell>
        <mxCell id="Rgpufr8bOXuqnWRCojN8-76" style="edgeStyle=elbowEdgeStyle;rounded=0;orthogonalLoop=1;jettySize=auto;elbow=vertical;html=1;entryX=0;entryY=0.5;entryDx=0;entryDy=0;endArrow=classic;endFill=1;" edge="1" parent="Rgpufr8bOXuqnWRCojN8-23" source="Rgpufr8bOXuqnWRCojN8-62" target="Rgpufr8bOXuqnWRCojN8-71">
          <mxGeometry relative="1" as="geometry">
            <Array as="points">
              <mxPoint x="290" y="980" />
            </Array>
          </mxGeometry>
        </mxCell>
        <mxCell id="Rgpufr8bOXuqnWRCojN8-62" value="steps" style="whiteSpace=wrap;html=1;treeFolding=1;treeMoving=1;newEdgeStyle={&quot;edgeStyle&quot;:&quot;elbowEdgeStyle&quot;,&quot;startArrow&quot;:&quot;none&quot;,&quot;endArrow&quot;:&quot;none&quot;};labelBackgroundColor=none;labelBorderColor=default;strokeColor=default;strokeWidth=2;fillColor=none;verticalAlign=top;align=center;container=1;" vertex="1" parent="Rgpufr8bOXuqnWRCojN8-23">
          <mxGeometry x="217.5" y="680" width="145" height="80" as="geometry" />
        </mxCell>
        <mxCell id="Rgpufr8bOXuqnWRCojN8-67" value="- uses" style="whiteSpace=wrap;html=1;treeFolding=1;treeMoving=1;newEdgeStyle={&quot;edgeStyle&quot;:&quot;elbowEdgeStyle&quot;,&quot;startArrow&quot;:&quot;none&quot;,&quot;endArrow&quot;:&quot;none&quot;};labelBackgroundColor=none;labelBorderColor=default;strokeColor=default;strokeWidth=2;fillColor=none;verticalAlign=top;align=center;container=1;" vertex="1" parent="Rgpufr8bOXuqnWRCojN8-23">
          <mxGeometry x="375" y="760" width="160" height="80" as="geometry" />
        </mxCell>
        <mxCell id="Rgpufr8bOXuqnWRCojN8-66" value="actions/checkout@v2" style="whiteSpace=wrap;html=1;treeFolding=0;treeMoving=1;newEdgeStyle={&quot;edgeStyle&quot;:&quot;elbowEdgeStyle&quot;,&quot;startArrow&quot;:&quot;none&quot;,&quot;endArrow&quot;:&quot;none&quot;};labelBackgroundColor=none;labelBorderColor=none;strokeColor=default;strokeWidth=2;fillColor=none;dashed=1;" vertex="1" parent="Rgpufr8bOXuqnWRCojN8-67">
          <mxGeometry x="13.178666666666658" y="30" width="133.64266666666668" height="40" as="geometry" />
        </mxCell>
        <mxCell id="Rgpufr8bOXuqnWRCojN8-68" value="- name" style="whiteSpace=wrap;html=1;treeFolding=1;treeMoving=1;newEdgeStyle={&quot;edgeStyle&quot;:&quot;elbowEdgeStyle&quot;,&quot;startArrow&quot;:&quot;none&quot;,&quot;endArrow&quot;:&quot;none&quot;};labelBackgroundColor=none;labelBorderColor=default;strokeColor=default;strokeWidth=2;fillColor=none;verticalAlign=top;align=center;container=1;" vertex="1" parent="Rgpufr8bOXuqnWRCojN8-23">
          <mxGeometry x="375" y="860" width="297.5" height="160" as="geometry" />
        </mxCell>
        <mxCell id="Rgpufr8bOXuqnWRCojN8-77" value="" style="whiteSpace=wrap;html=1;treeFolding=1;treeMoving=1;newEdgeStyle={&quot;edgeStyle&quot;:&quot;elbowEdgeStyle&quot;,&quot;startArrow&quot;:&quot;none&quot;,&quot;endArrow&quot;:&quot;none&quot;};labelBackgroundColor=none;labelBorderColor=default;strokeColor=default;strokeWidth=2;fillColor=none;verticalAlign=top;align=center;container=1;" vertex="1" parent="Rgpufr8bOXuqnWRCojN8-68">
          <mxGeometry y="30" width="297.5" height="60" as="geometry" />
        </mxCell>
        <mxCell id="Rgpufr8bOXuqnWRCojN8-78" value="Run a one-line script" style="whiteSpace=wrap;html=1;treeFolding=0;treeMoving=1;newEdgeStyle={&quot;edgeStyle&quot;:&quot;elbowEdgeStyle&quot;,&quot;startArrow&quot;:&quot;none&quot;,&quot;endArrow&quot;:&quot;none&quot;};labelBackgroundColor=none;labelBorderColor=none;strokeColor=default;strokeWidth=2;fillColor=none;dashed=1;" vertex="1" parent="Rgpufr8bOXuqnWRCojN8-77">
          <mxGeometry x="32.26945312499999" y="15" width="232.96109375" height="30" as="geometry" />
        </mxCell>
        <mxCell id="Rgpufr8bOXuqnWRCojN8-71" value="- name" style="whiteSpace=wrap;html=1;treeFolding=1;treeMoving=1;newEdgeStyle={&quot;edgeStyle&quot;:&quot;elbowEdgeStyle&quot;,&quot;startArrow&quot;:&quot;none&quot;,&quot;endArrow&quot;:&quot;none&quot;};labelBackgroundColor=none;labelBorderColor=default;strokeColor=default;strokeWidth=2;fillColor=none;verticalAlign=top;align=center;container=1;" vertex="1" parent="Rgpufr8bOXuqnWRCojN8-23">
          <mxGeometry x="150" y="950" width="160" height="80" as="geometry" />
        </mxCell>
        <mxCell id="Rgpufr8bOXuqnWRCojN8-73" value="Run a multi-line script" style="whiteSpace=wrap;html=1;treeFolding=0;treeMoving=1;newEdgeStyle={&quot;edgeStyle&quot;:&quot;elbowEdgeStyle&quot;,&quot;startArrow&quot;:&quot;none&quot;,&quot;endArrow&quot;:&quot;none&quot;};labelBackgroundColor=none;labelBorderColor=none;strokeColor=default;strokeWidth=2;fillColor=none;dashed=1;" vertex="1" parent="Rgpufr8bOXuqnWRCojN8-71">
          <mxGeometry x="21.04" y="30" width="117.92" height="40" as="geometry" />
        </mxCell>
        <mxCell id="Rgpufr8bOXuqnWRCojN8-72" value="echo Hello, world!" style="whiteSpace=wrap;html=1;treeFolding=0;treeMoving=1;newEdgeStyle={&quot;edgeStyle&quot;:&quot;elbowEdgeStyle&quot;,&quot;startArrow&quot;:&quot;none&quot;,&quot;endArrow&quot;:&quot;none&quot;};labelBackgroundColor=none;labelBorderColor=none;strokeColor=default;strokeWidth=2;fillColor=none;dashed=1;" vertex="1" parent="Rgpufr8bOXuqnWRCojN8-23">
          <mxGeometry x="559.99828125" y="740" width="231.00343750000002" height="40" as="geometry" />
        </mxCell>
        <mxCell id="Rgpufr8bOXuqnWRCojN8-79" value="echo Add other actions to build,&lt;br&gt;echo test, and deploy your project." style="whiteSpace=wrap;html=1;treeFolding=0;treeMoving=1;newEdgeStyle={&quot;edgeStyle&quot;:&quot;elbowEdgeStyle&quot;,&quot;startArrow&quot;:&quot;none&quot;,&quot;endArrow&quot;:&quot;none&quot;};labelBackgroundColor=none;labelBorderColor=none;strokeColor=default;strokeWidth=2;fillColor=none;dashed=1;" vertex="1" parent="Rgpufr8bOXuqnWRCojN8-23">
          <mxGeometry x="549.99828125" y="670" width="231.00343750000002" height="40" as="geometry" />
        </mxCell>
        <mxCell id="Rgpufr8bOXuqnWRCojN8-80" value="triggered&lt;br&gt;on" style="shape=note2;boundedLbl=1;whiteSpace=wrap;html=1;size=25;verticalAlign=middle;align=center;dashed=1;labelBackgroundColor=none;labelBorderColor=none;strokeColor=default;strokeWidth=2;fillColor=none;spacingRight=15;" vertex="1" parent="Rgpufr8bOXuqnWRCojN8-23">
          <mxGeometry x="151" y="170" width="94" height="40" as="geometry" />
        </mxCell>
        <mxCell id="Rgpufr8bOXuqnWRCojN8-81" value="name of&lt;br&gt;job" style="shape=note2;boundedLbl=1;whiteSpace=wrap;html=1;size=25;verticalAlign=middle;align=center;dashed=1;labelBackgroundColor=none;labelBorderColor=none;strokeColor=default;strokeWidth=2;fillColor=none;spacingRight=15;" vertex="1" parent="Rgpufr8bOXuqnWRCojN8-23">
          <mxGeometry x="140.5" y="500" width="94" height="40" as="geometry" />
        </mxCell>
        <mxCell id="Rgpufr8bOXuqnWRCojN8-28" value="" style="edgeStyle=elbowEdgeStyle;elbow=vertical;startArrow=none;endArrow=none;rounded=0;" edge="1" parent="Rgpufr8bOXuqnWRCojN8-9" source="Rgpufr8bOXuqnWRCojN8-9" target="Rgpufr8bOXuqnWRCojN8-27">
          <mxGeometry relative="1" as="geometry">
            <mxPoint x="332.5" y="180" as="sourcePoint" />
            <mxPoint x="330" y="220" as="targetPoint" />
          </mxGeometry>
        </mxCell>
      </root>
    </mxGraphModel>
  </diagram>
  <diagram id="_lEzBtKeytYTrFOyNZK7" name="Page-1">
    <mxGraphModel dx="1778" dy="943" grid="1" gridSize="10" guides="1" tooltips="1" connect="1" arrows="1" fold="1" page="1" pageScale="1" pageWidth="1600" pageHeight="900" background="#ffffff" math="0" shadow="0">
      <root>
        <mxCell id="0" />
        <mxCell id="1" parent="0" />
        <mxCell id="nwnsQMDqynVd4yP-KLPJ-4" value="&#xa;&lt;h1 style=&quot;box-sizing: border-box; margin: calc(var(--content-rhythm) / 2) 0; font-family: -apple-system, BlinkMacSystemFont, &amp;quot;Segoe UI&amp;quot;, Roboto, Helvetica, Arial, sans-serif, &amp;quot;Apple Color Emoji&amp;quot;, &amp;quot;Segoe UI Emoji&amp;quot;, &amp;quot;Segoe UI Symbol&amp;quot;; padding: 0px; font-weight: var(--fw-bold); line-height: var(--lh-tight); font-size: 1.75em; color: rgb(23, 23, 23); font-style: normal; font-variant-ligatures: normal; font-variant-caps: normal; letter-spacing: normal; orphans: 2; text-indent: 0px; text-transform: none; widows: 2; word-spacing: 0px; -webkit-text-stroke-width: 0px; background-color: rgb(255, 255, 255); text-decoration-thickness: initial; text-decoration-style: initial; text-decoration-color: initial;&quot;&gt;CJS&lt;/h1&gt;&lt;br class=&quot;Apple-interchange-newline&quot;&gt;&#xa;&#xa;" style="rounded=0;whiteSpace=wrap;html=1;spacingLeft=0;spacingBottom=0;container=1;align=center;verticalAlign=top;labelPosition=center;verticalLabelPosition=middle;" parent="1" vertex="1">
          <mxGeometry x="10" y="10" width="620" height="495" as="geometry">
            <mxRectangle x="10" y="10" width="70" height="60" as="alternateBounds" />
          </mxGeometry>
        </mxCell>
        <mxCell id="4d3lwY7rjP7gSteMc4W--1" value="&#xa;&lt;p style=&quot;box-sizing: border-box; margin: 0 0 var(--content-rhythm) 0; color: rgb(23, 23, 23); font-family: -apple-system, BlinkMacSystemFont, &amp;quot;Segoe UI&amp;quot;, Roboto, Helvetica, Arial, sans-serif, &amp;quot;Apple Color Emoji&amp;quot;, &amp;quot;Segoe UI Emoji&amp;quot;, &amp;quot;Segoe UI Symbol&amp;quot;; font-size: 22.5px; font-style: normal; font-variant-ligatures: normal; font-variant-caps: normal; font-weight: 400; letter-spacing: normal; orphans: 2; text-align: start; text-indent: 0px; text-transform: none; widows: 2; word-spacing: 0px; -webkit-text-stroke-width: 0px; text-decoration-thickness: initial; text-decoration-style: initial; text-decoration-color: initial;&quot;&gt;CJS is short for CommonJS. Here is what it looks like:&lt;br style=&quot;box-sizing: border-box;&quot;&gt;&lt;/p&gt;&lt;div style=&quot;box-sizing: border-box; background-image: ; background-position-x: ; background-position-y: ; background-size: ; background-repeat-x: ; background-repeat-y: ; background-attachment: ; background-origin: ; background-clip: ; color: var(--syntax-text-color); font-size: 18px; border-radius: var(--radius); margin: 0 0 var(--content-rhythm) 0; overflow-x: auto; overflow-wrap: initial; padding: var(--su-6); position: relative; font-family: -apple-system, BlinkMacSystemFont, &amp;quot;Segoe UI&amp;quot;, Roboto, Helvetica, Arial, sans-serif, &amp;quot;Apple Color Emoji&amp;quot;, &amp;quot;Segoe UI Emoji&amp;quot;, &amp;quot;Segoe UI Symbol&amp;quot;; font-style: normal; font-variant-ligatures: normal; font-variant-caps: normal; font-weight: 400; letter-spacing: normal; orphans: 2; text-align: start; text-indent: 0px; text-transform: none; widows: 2; word-spacing: 0px; -webkit-text-stroke-width: 0px; text-decoration-thickness: initial; text-decoration-style: initial; text-decoration-color: initial;&quot; class=&quot;highlight js-code-highlight&quot;&gt;&lt;br class=&quot;Apple-interchange-newline&quot;&gt;&#xa;&#xa;&lt;/div&gt;" style="whiteSpace=wrap;html=1;rounded=0;spacingLeft=0;spacingBottom=0;labelBackgroundColor=none;labelBorderColor=none;container=1;strokeColor=default;" vertex="1" parent="nwnsQMDqynVd4yP-KLPJ-4">
          <mxGeometry x="30" y="115" width="560" height="315" as="geometry">
            <mxRectangle x="30" y="115" width="560" height="120" as="alternateBounds" />
          </mxGeometry>
        </mxCell>
        <mxCell id="4d3lwY7rjP7gSteMc4W--7" value="&lt;div&gt;//importing&amp;nbsp;&lt;/div&gt;&lt;div&gt;const doSomething = require(&#39;./doSomething.js&#39;);&amp;nbsp;&lt;/div&gt;&lt;div&gt;&lt;br&gt;&lt;/div&gt;&lt;div&gt;//exporting&lt;/div&gt;&lt;div&gt;module.exports = function doSomething(n) {&lt;/div&gt;&lt;div&gt;&amp;nbsp; // do something&lt;/div&gt;&lt;div&gt;}&lt;/div&gt;" style="text;html=1;align=center;verticalAlign=middle;resizable=0;points=[];autosize=1;strokeColor=none;fillColor=none;labelBorderColor=default;spacing=5;" vertex="1" parent="4d3lwY7rjP7gSteMc4W--1">
          <mxGeometry x="110" y="180" width="290" height="120" as="geometry" />
        </mxCell>
      </root>
    </mxGraphModel>
  </diagram>
  <diagram id="PgW-JJS8YYEeUViuzFC8" name="Page-2">
    <mxGraphModel dx="677" dy="359" grid="1" gridSize="10" guides="1" tooltips="1" connect="1" arrows="1" fold="1" page="1" pageScale="1" pageWidth="850" pageHeight="1100" math="0" shadow="0">
      <root>
        <mxCell id="0" />
        <mxCell id="1" parent="0" />
        <mxCell id="vqunKvxI235pbjuJBx6x-1" value="" style="shape=image;verticalLabelPosition=bottom;labelBackgroundColor=default;verticalAlign=top;aspect=fixed;imageAspect=0;image=https://courses.edx.org/assets/courseware/v1/9df11f203d18addb831da2f379cb49a5/asset-v1:W3Cx+JS.0x+2T2022+type@asset+block/diagram-element.png;strokeWidth=2;fillColor=none;strokeColor=#6c8ebf;" vertex="1" parent="1">
          <mxGeometry x="180" y="210" width="520" height="284" as="geometry" />
        </mxCell>
        <mxCell id="vqunKvxI235pbjuJBx6x-2" value="" style="rounded=0;whiteSpace=wrap;html=1;labelBackgroundColor=none;labelBorderColor=default;strokeColor=#6c8ebf;fillColor=none;strokeWidth=2;" vertex="1" parent="1">
          <mxGeometry x="284" y="304" width="73" height="58" as="geometry" />
        </mxCell>
      </root>
    </mxGraphModel>
  </diagram>
  <diagram id="9d-rf6JmdltzQveRYRFD" name="Page-3">
    <mxGraphModel dx="1422" dy="754" grid="1" gridSize="10" guides="1" tooltips="1" connect="1" arrows="1" fold="1" page="1" pageScale="1" pageWidth="850" pageHeight="1100" math="0" shadow="0">
      <root>
        <mxCell id="0" />
        <mxCell id="1" parent="0" />
        <mxCell id="5nqOkucB81tBF59Kh8T8-1" value="" style="strokeWidth=1;shadow=0;dashed=0;align=center;html=1;shape=mxgraph.mockup.containers.rrect;rSize=0;strokeColor=#666666;labelBackgroundColor=none;labelBorderColor=default;fillColor=none;" vertex="1" parent="1">
          <mxGeometry x="290" y="240" width="100" height="220" as="geometry" />
        </mxCell>
        <mxCell id="5nqOkucB81tBF59Kh8T8-2" value="Group 1" style="strokeColor=inherit;fillColor=inherit;gradientColor=inherit;strokeWidth=1;shadow=0;dashed=0;align=center;html=1;shape=mxgraph.mockup.containers.rrect;rSize=0;fontSize=17;fontColor=#666666;fontStyle=1;resizeWidth=1;labelBackgroundColor=none;labelBorderColor=default;" vertex="1" parent="5nqOkucB81tBF59Kh8T8-1">
          <mxGeometry width="100" height="26" relative="1" as="geometry" />
        </mxCell>
        <mxCell id="5nqOkucB81tBF59Kh8T8-3" value="Group 2" style="strokeColor=inherit;fillColor=inherit;gradientColor=inherit;strokeWidth=1;shadow=0;dashed=0;align=center;html=1;shape=mxgraph.mockup.containers.rrect;rSize=0;fontSize=17;fontColor=#666666;fontStyle=1;resizeWidth=1;labelBackgroundColor=none;labelBorderColor=default;part=0;" vertex="1" parent="5nqOkucB81tBF59Kh8T8-1">
          <mxGeometry width="100" height="26" relative="1" as="geometry">
            <mxPoint y="26" as="offset" />
          </mxGeometry>
        </mxCell>
        <mxCell id="5nqOkucB81tBF59Kh8T8-4" value="Group 3" style="strokeWidth=1;shadow=0;dashed=0;align=center;html=1;shape=mxgraph.mockup.containers.rrect;rSize=0;fontSize=17;fontColor=#ffffff;fontStyle=1;fillColor=#008cff;strokeColor=#008cff;resizeWidth=1;labelBackgroundColor=none;labelBorderColor=default;" vertex="1" parent="5nqOkucB81tBF59Kh8T8-1">
          <mxGeometry width="100" height="26" relative="1" as="geometry">
            <mxPoint y="52" as="offset" />
          </mxGeometry>
        </mxCell>
        <mxCell id="5nqOkucB81tBF59Kh8T8-5" value="Group 4" style="strokeColor=inherit;fillColor=inherit;gradientColor=inherit;strokeWidth=1;shadow=0;dashed=0;align=center;html=1;shape=mxgraph.mockup.containers.rrect;rSize=0;fontSize=17;fontColor=#666666;fontStyle=1;resizeWidth=1;labelBackgroundColor=none;labelBorderColor=default;" vertex="1" parent="5nqOkucB81tBF59Kh8T8-1">
          <mxGeometry y="1" width="100" height="26" relative="1" as="geometry">
            <mxPoint y="-26" as="offset" />
          </mxGeometry>
        </mxCell>
      </root>
    </mxGraphModel>
  </diagram>
  <diagram id="IwrUrChBAs0Ua-a2BWoj" name="Page-4">
    <mxGraphModel dx="1422" dy="754" grid="1" gridSize="10" guides="1" tooltips="1" connect="1" arrows="1" fold="1" page="1" pageScale="1" pageWidth="850" pageHeight="1100" math="0" shadow="0">
      <root>
        <mxCell id="0" />
        <mxCell id="1" parent="0" />
        <mxCell id="vuh5XMrYaGDxAMXZWLMa-1" value="" style="shape=image;verticalLabelPosition=bottom;labelBackgroundColor=default;verticalAlign=top;aspect=fixed;imageAspect=0;image=https://courses.edx.org/assets/courseware/v1/9df11f203d18addb831da2f379cb49a5/asset-v1:W3Cx+JS.0x+2T2022+type@asset+block/diagram-element.png;" vertex="1" parent="1">
          <mxGeometry x="650" y="490" width="520" height="284" as="geometry" />
        </mxCell>
      </root>
    </mxGraphModel>
  </diagram>
  <diagram id="6Xyy3fiLh29vbsiA-8Gd" name="Page-5">
    <mxGraphModel dx="2585" dy="1371" grid="1" gridSize="10" guides="1" tooltips="1" connect="1" arrows="1" fold="1" page="1" pageScale="1" pageWidth="850" pageHeight="1100" math="0" shadow="0">
      <root>
        <mxCell id="0" />
        <mxCell id="1" parent="0" />
        <mxCell id="820x_Uy6Gc-rX6BdasYU-1" value="" style="swimlane;startSize=0;labelBackgroundColor=none;labelBorderColor=default;strokeColor=default;strokeWidth=2;fillColor=none;" vertex="1" parent="1">
          <mxGeometry x="273" y="160" width="555" height="410" as="geometry">
            <mxRectangle x="1050" y="80" width="50" height="40" as="alternateBounds" />
          </mxGeometry>
        </mxCell>
        <mxCell id="820x_Uy6Gc-rX6BdasYU-2" value="" style="rounded=0;whiteSpace=wrap;html=1;labelBackgroundColor=none;labelBorderColor=default;strokeColor=default;strokeWidth=2;fillColor=none;" vertex="1" parent="820x_Uy6Gc-rX6BdasYU-1">
          <mxGeometry x="390" y="265" width="120" height="60" as="geometry" />
        </mxCell>
        <mxCell id="820x_Uy6Gc-rX6BdasYU-3" value="" style="rounded=0;whiteSpace=wrap;html=1;labelBackgroundColor=none;labelBorderColor=default;strokeColor=default;strokeWidth=2;fillColor=none;" vertex="1" parent="1">
          <mxGeometry x="23" y="140" width="120" height="60" as="geometry" />
        </mxCell>
        <mxCell id="820x_Uy6Gc-rX6BdasYU-4" style="edgeStyle=entityRelationEdgeStyle;rounded=0;orthogonalLoop=1;jettySize=auto;html=1;entryX=0;entryY=0.5;entryDx=0;entryDy=0;" edge="1" parent="1" source="820x_Uy6Gc-rX6BdasYU-3" target="820x_Uy6Gc-rX6BdasYU-2">
          <mxGeometry relative="1" as="geometry">
            <mxPoint x="193" y="270" as="targetPoint" />
          </mxGeometry>
        </mxCell>
        <mxCell id="820x_Uy6Gc-rX6BdasYU-5" value="&amp;lt;/&amp;gt;" style="rounded=1;arcSize=0;fillColor=#0065FF;strokeColor=none;fontColor=#ffffff;align=center;verticalAlign=middle;whiteSpace=wrap;fontSize=14;fontStyle=1;html=1;sketch=0;labelBackgroundColor=none;labelBorderColor=default;" vertex="1" parent="1">
          <mxGeometry x="143" y="400" width="40" height="40" as="geometry" />
        </mxCell>
      </root>
    </mxGraphModel>
  </diagram>
  <diagram id="7V9tAm7Z5GbBE1KvTe3J" name="Page-6">
    <mxGraphModel dx="572" dy="754" grid="1" gridSize="10" guides="1" tooltips="1" connect="1" arrows="1" fold="1" page="1" pageScale="1" pageWidth="850" pageHeight="1100" math="0" shadow="0">
      <root>
        <mxCell id="0" />
        <mxCell id="1" parent="0" />
        <mxCell id="haGSABIjfTjdx5PNvXex-1" value="Tree Container" style="swimlane;startSize=20;horizontal=1;containerType=tree;labelBackgroundColor=none;labelBorderColor=default;strokeColor=default;strokeWidth=2;fillColor=none;" vertex="1" parent="1">
          <mxGeometry x="1050" y="220" width="400" height="320" as="geometry" />
        </mxCell>
        <mxCell id="haGSABIjfTjdx5PNvXex-2" value="" style="edgeStyle=elbowEdgeStyle;elbow=vertical;startArrow=none;endArrow=none;rounded=0;" edge="1" parent="haGSABIjfTjdx5PNvXex-1" source="haGSABIjfTjdx5PNvXex-3" target="haGSABIjfTjdx5PNvXex-4">
          <mxGeometry relative="1" as="geometry" />
        </mxCell>
        <mxCell id="haGSABIjfTjdx5PNvXex-3" value="Parent" style="whiteSpace=wrap;html=1;treeFolding=1;treeMoving=1;newEdgeStyle={&quot;edgeStyle&quot;:&quot;elbowEdgeStyle&quot;,&quot;startArrow&quot;:&quot;none&quot;,&quot;endArrow&quot;:&quot;none&quot;};labelBackgroundColor=none;labelBorderColor=default;strokeColor=default;strokeWidth=2;fillColor=none;" vertex="1" parent="haGSABIjfTjdx5PNvXex-1">
          <mxGeometry x="130" y="50" width="120" height="40" as="geometry" />
        </mxCell>
        <mxCell id="haGSABIjfTjdx5PNvXex-4" value="Child" style="whiteSpace=wrap;html=1;treeFolding=1;treeMoving=1;newEdgeStyle={&quot;edgeStyle&quot;:&quot;elbowEdgeStyle&quot;,&quot;startArrow&quot;:&quot;none&quot;,&quot;endArrow&quot;:&quot;none&quot;};labelBackgroundColor=none;labelBorderColor=default;strokeColor=default;strokeWidth=2;fillColor=none;" vertex="1" parent="haGSABIjfTjdx5PNvXex-1">
          <mxGeometry x="130" y="130" width="120" height="40" as="geometry" />
        </mxCell>
        <mxCell id="haGSABIjfTjdx5PNvXex-5" value="Child Child" style="whiteSpace=wrap;html=1;treeFolding=1;treeMoving=1;newEdgeStyle={&quot;edgeStyle&quot;:&quot;elbowEdgeStyle&quot;,&quot;startArrow&quot;:&quot;none&quot;,&quot;endArrow&quot;:&quot;none&quot;};labelBackgroundColor=none;labelBorderColor=default;strokeColor=default;strokeWidth=2;fillColor=none;" vertex="1" parent="haGSABIjfTjdx5PNvXex-1">
          <mxGeometry x="130" y="220" width="120" height="40" as="geometry" />
        </mxCell>
        <mxCell id="haGSABIjfTjdx5PNvXex-6" value="" style="edgeStyle=elbowEdgeStyle;elbow=vertical;startArrow=none;endArrow=none;rounded=0;exitX=0.5;exitY=1;exitDx=0;exitDy=0;" edge="1" parent="haGSABIjfTjdx5PNvXex-1" source="haGSABIjfTjdx5PNvXex-4" target="haGSABIjfTjdx5PNvXex-5">
          <mxGeometry relative="1" as="geometry">
            <mxPoint x="190" y="90.00000000000011" as="sourcePoint" />
            <mxPoint x="190" y="130" as="targetPoint" />
          </mxGeometry>
        </mxCell>
      </root>
    </mxGraphModel>
  </diagram>
</mxfile>
